# xmcd CD database file
#
# Track frame offsets:
#	150
#	7498
#	20572
#	41130
#	54149
#	79780
#	95386
#	113860
#	127017
#	149474
#	164255
#	191890
#	204277
#
# Disc length: 2943 seconds
#
# Revision: 0
# Processed by: cddbd v1.5.1PL0 Copyright (c) Steve Scherf et al.
# Submitted via: CDex 1.51
#
DISCID=b60b7d0d
DTITLE=Sojiro - Special Choice Disc 2
DYEAR=2004
DGENRE=New Age
TTITLE0=Theme of The Great Yellow River
TTITLE1=The Mystery
TTITLE2=Spiritual People
TTITLE3=The Huang He Civilization
TTITLE4=Ancient World
TTITLE5=The Great Journey
TTITLE6=Crystal Stream
TTITLE7=Requiem
TTITLE8=Dancing Dragon
TTITLE9=Reminiscence
TTITLE10=The Bo Hai
TTITLE11=Sunny Stream
TTITLE12=Buddha Road
EXTD=YEAR: 2004
EXTT0=
EXTT1=
EXTT2=
EXTT3=
EXTT4=
EXTT5=
EXTT6=
EXTT7=
EXTT8=
EXTT9=
EXTT10=
EXTT11=
EXTT12=
PLAYORDER=
